<?xml version="1.0" encoding="UTF-8" standalone="no"?>
<svg
   xmlns:dc="http://purl.org/dc/elements/1.1/"
   xmlns:cc="http://creativecommons.org/ns#"
   xmlns:rdf="http://www.w3.org/1999/02/22-rdf-syntax-ns#"
   xmlns:svg="http://www.w3.org/2000/svg"
   xmlns="http://www.w3.org/2000/svg"
   xmlns:sodipodi="http://sodipodi.sourceforge.net/DTD/sodipodi-0.dtd"
   xmlns:inkscape="http://www.inkscape.org/namespaces/inkscape"
   width="297mm"
   height="210mm"
   viewBox="0 0 297 210"
   version="1.1"
   id="svg16"
   inkscape:version="1.0.2 (e86c870879, 2021-01-15)"
   sodipodi:docname="bigger.svg">
  <defs
     id="defs10" />
  <sodipodi:namedview
     id="base"
     pagecolor="#ffffff"
     bordercolor="#666666"
     borderopacity="1.0"
     inkscape:pageopacity="0.0"
     inkscape:pageshadow="2"
     inkscape:zoom="0.93257951"
     inkscape:cx="544.25167"
     inkscape:cy="397.58204"
     inkscape:document-units="mm"
     inkscape:current-layer="layer1"
     inkscape:document-rotation="0"
     showgrid="false"
     inkscape:window-width="1920"
     inkscape:window-height="1011"
     inkscape:window-x="0"
     inkscape:window-y="0"
     inkscape:window-maximized="1" />
  <metadata
     id="metadata13">
    <rdf:RDF>
      <cc:Work
         rdf:about="">
        <dc:format>image/svg+xml</dc:format>
        <dc:type
           rdf:resource="http://purl.org/dc/dcmitype/StillImage" />
        <dc:title></dc:title>
      </cc:Work>
    </rdf:RDF>
  </metadata>
  <g
     inkscape:label="Layer 1"
     inkscape:groupmode="layer"
     id="layer1">
    <path
       style="fill:none;stroke:#000000;stroke-width:0.264583px;stroke-linecap:butt;stroke-linejoin:miter;stroke-opacity:1"
       d="M 45.729604,177.99337 H 251.89794 c 13.71032,-0.2083 25.84522,-6.95644 22.39769,-28.58281 -2.39119,-14.99995 -17.68099,-27.30832 -17.68099,-27.30832 0,0 -19.16159,-16.48628 -33.80043,-10.92731 -14.63884,5.55897 -20.46822,23.69543 -20.46822,23.69543 0,0 -6.38404,12.22736 -11.23541,19.03415 -9.97534,13.99606 -18.64515,9.35714 -29.62899,4.67237 -8.84059,-5.60779 -24.87045,-2.20897 -26.05821,-42.08902 C 134.20411,75.549887 107.26371,37.007231 92.191759,17.099146 82.248201,3.9649997 72.397387,-5.3530744 40.337983,21.959918 8.2806285,49.271165 37.720301,100.89815 37.720301,100.89815 53.610288,132.14539 20.326957,129.03093 26.664428,154.401 c 6.377737,25.53127 18.919491,23.61885 19.065176,23.59237 z"
       id="path61"
       sodipodi:nodetypes="ccscscscssscsc" />
  </g>
</svg>
