# Blender v2.92.0 OBJ File: 'default.blend'
# www.blender.org
mtllib default.mtl
o Plane
v 0.000000 0.000000 -1.000000
v 1.000000 0.000000 -1.000000
v 0.000000 0.000000 -8.000000
v 1.000000 0.000000 -8.000000
v 0.000000 0.000000 0.000000
v 1.000000 0.000000 0.000000
v 0.000000 0.000000 -9.000000
v 1.000000 0.000000 -9.000000
v 0.000000 0.000000 -8.000000
v 0.000000 0.000000 -1.000000
v 1.000000 0.000000 -1.000000
v 1.000000 0.000000 -8.000000
v 0.000000 0.000000 0.000000
v 1.000000 0.000000 0.000000
v 1.000000 0.000000 -9.000000
v 0.000000 0.000000 -9.000000
v 0.000000 1.000000 -8.000000
v 0.000000 1.000000 -1.000000
v 1.000000 1.000000 -1.000000
v 1.000000 1.000000 -8.000000
v 0.000000 1.000000 0.000000
v 1.000000 1.000000 0.000000
v 1.000000 1.000000 -9.000000
v 0.000000 1.000000 -9.000000
v 0.000000 1.125000 -1.000000
v 1.000000 1.125000 -1.000000
v 0.000000 1.125000 0.000000
v 1.000000 1.125000 0.000000
v 1.000000 1.125000 -8.000000
v 0.000000 1.125000 -8.000000
v 1.000000 1.125000 -9.000000
v 0.000000 1.125000 -9.000000
vt 0.000000 1.000000
vt 1.000000 0.000000
vt 0.000000 0.000000
vt 1.000000 0.000000
vt 0.000000 1.000000
vt 1.000000 1.000000
vt 1.000000 0.000000
vt 1.000000 0.000000
vt 1.000000 0.000000
vt 0.000000 1.000000
vt 1.000000 1.000000
vt 1.000000 1.000000
vt 1.000000 1.000000
vt 1.000000 1.000000
vt 0.000000 1.000000
vt 0.000000 0.000000
vt 0.000000 0.000000
vt 0.000000 0.000000
vt 1.000000 1.000000
vt 1.000000 0.000000
vt 0.000000 1.000000
vt 0.000000 0.000000
vt 1.000000 0.000000
vt 1.000000 1.000000
vt 0.000000 1.000000
vt 0.000000 0.000000
vt 0.000000 0.000000
vt 1.000000 0.000000
vt 0.000000 0.000000
vt 0.000000 1.000000
vt 0.000000 1.000000
vt 1.000000 1.000000
vn 0.0000 -1.0000 0.0000
vn 1.0000 0.0000 0.0000
vn 0.0000 0.0000 -1.0000
vn 0.0000 0.0000 1.0000
vn 0.0000 1.0000 0.0000
vn -1.0000 0.0000 0.0000
usemtl None
s off
f 3/1/1 2/2/1 1/3/1
f 6/4/1 1/3/1 2/2/1
f 7/5/1 4/6/1 3/1/1
f 11/7/2 22/8/2 14/9/2
f 16/10/3 23/11/3 15/12/3
f 15/12/2 20/13/2 12/14/2
f 7/5/4 9/15/4 16/10/4
f 1/3/4 13/16/4 10/17/4
f 5/18/4 14/9/4 13/16/4
f 2/2/4 12/14/4 11/7/4
f 3/1/4 10/17/4 9/15/4
f 4/6/4 15/12/4 12/14/4
f 8/19/4 16/10/4 15/12/4
f 6/4/4 11/7/4 14/9/4
f 19/20/5 17/21/5 18/22/5
f 19/20/2 28/23/2 22/8/2
f 23/11/2 29/24/2 20/13/2
f 9/15/6 24/25/6 16/10/6
f 13/16/6 18/22/6 10/17/6
f 14/9/4 21/26/4 13/16/4
f 12/14/2 19/20/2 11/7/2
f 10/17/6 17/21/6 9/15/6
f 25/27/5 28/23/5 26/28/5
f 18/22/3 26/28/3 19/20/3
f 21/26/6 25/27/6 18/22/6
f 22/8/4 27/29/4 21/26/4
f 29/24/5 32/30/5 30/31/5
f 24/25/3 31/32/3 23/11/3
f 20/13/4 30/31/4 17/21/4
f 17/21/6 32/30/6 24/25/6
f 3/1/1 4/6/1 2/2/1
f 6/4/1 5/18/1 1/3/1
f 7/5/1 8/19/1 4/6/1
f 11/7/2 19/20/2 22/8/2
f 16/10/3 24/25/3 23/11/3
f 15/12/2 23/11/2 20/13/2
f 7/5/4 3/1/4 9/15/4
f 1/3/4 5/18/4 13/16/4
f 5/18/4 6/4/4 14/9/4
f 2/2/4 4/6/4 12/14/4
f 3/1/4 1/3/4 10/17/4
f 4/6/4 8/19/4 15/12/4
f 8/19/4 7/5/4 16/10/4
f 6/4/4 2/2/4 11/7/4
f 19/20/5 20/13/5 17/21/5
f 19/20/2 26/28/2 28/23/2
f 23/11/2 31/32/2 29/24/2
f 9/15/6 17/21/6 24/25/6
f 13/16/6 21/26/6 18/22/6
f 14/9/4 22/8/4 21/26/4
f 12/14/2 20/13/2 19/20/2
f 10/17/6 18/22/6 17/21/6
f 25/27/5 27/29/5 28/23/5
f 18/22/3 25/27/3 26/28/3
f 21/26/6 27/29/6 25/27/6
f 22/8/4 28/23/4 27/29/4
f 29/24/5 31/32/5 32/30/5
f 24/25/3 32/30/3 31/32/3
f 20/13/4 29/24/4 30/31/4
f 17/21/6 30/31/6 32/30/6
