<?xml version="1.0" encoding="UTF-8" standalone="no"?>
<svg
   xmlns:dc="http://purl.org/dc/elements/1.1/"
   xmlns:cc="http://creativecommons.org/ns#"
   xmlns:rdf="http://www.w3.org/1999/02/22-rdf-syntax-ns#"
   xmlns:svg="http://www.w3.org/2000/svg"
   xmlns="http://www.w3.org/2000/svg"
   xmlns:sodipodi="http://sodipodi.sourceforge.net/DTD/sodipodi-0.dtd"
   xmlns:inkscape="http://www.inkscape.org/namespaces/inkscape"
   width="297mm"
   height="210mm"
   viewBox="0 0 297 210"
   version="1.1"
   id="svg8"
   inkscape:version="1.0.2 (e86c870879, 2021-01-15)"
   sodipodi:docname="track1.svg">
  <defs
     id="defs2" />
  <sodipodi:namedview
     id="base"
     pagecolor="#ffffff"
     bordercolor="#666666"
     borderopacity="1.0"
     inkscape:pageopacity="0.0"
     inkscape:pageshadow="2"
     inkscape:zoom="0.98994949"
     inkscape:cx="578.63798"
     inkscape:cy="405.10825"
     inkscape:document-units="mm"
     inkscape:current-layer="layer1"
     inkscape:document-rotation="0"
     showgrid="false"
     inkscape:window-width="1920"
     inkscape:window-height="1011"
     inkscape:window-x="0"
     inkscape:window-y="0"
     inkscape:window-maximized="1" />
  <metadata
     id="metadata5">
    <rdf:RDF>
      <cc:Work
         rdf:about="">
        <dc:format>image/svg+xml</dc:format>
        <dc:type
           rdf:resource="http://purl.org/dc/dcmitype/StillImage" />
        <dc:title></dc:title>
      </cc:Work>
    </rdf:RDF>
  </metadata>
  <g
     inkscape:label="Layer 1"
     inkscape:groupmode="layer"
     id="layer1">
    <path
       style="fill:none;stroke:#000000;stroke-width:0.264583px;stroke-linecap:butt;stroke-linejoin:miter;stroke-opacity:1"
       d="M 36.405034,188.99296 H 256.94937"
       id="path28" />
    <path
       style="fill:none;stroke:#000000;stroke-width:0.264583px;stroke-linecap:butt;stroke-linejoin:miter;stroke-opacity:1"
       d="m 256.94937,188.99296 c 28.74845,0.34985 12.91491,-19.76045 -11.16999,-25.96795 -20.86598,-6.5315 -1.37181,19.95783 -24.30064,11.27544 -13.52564,-5.00088 -18.60848,-4.44618 -19.0868,-30.23486 l -0.75587,-77.973803 c -0.76998,-31.49469 28.24441,-32.161212 28.92461,-0.06055 0.0192,54.001195 55.64967,56.687645 55.58789,1.60988"
       id="path30"
       sodipodi:nodetypes="ccccccc" />
    <path
       style="fill:none;stroke:#000000;stroke-width:0.264583px;stroke-linecap:butt;stroke-linejoin:miter;stroke-opacity:1"
       d="m 286.14856,67.641117 c -0.0588,-38.010082 -0.0329,-54.767514 -30.21711,-54.835148 -29.83953,-0.07517 -66.28276,-18.0239023 -89.51859,-0.225509 -60.64514,51.211262 0.29581,93.4629 0.44371,140.19435 -1.61261,43.4428 -32.07546,-22.36737 -44.83551,9.64467 -9.27205,21.84986 -33.062249,11.37617 -31.122274,-7.67147 2.236989,-29.43793 35.689734,-69.2294 6.710968,-88.313784 C 74.41713,49.213211 52.32048,52.855768 43.213096,67.797716 9.9836858,110.14505 10.967796,189.30269 36.405034,188.99296"
       id="path32"
       sodipodi:nodetypes="ccccccccc" />
  </g>
</svg>
